<svg xmlns="http://www.w3.org/2000/svg" viewBox="0 0 417 345.5"><path d="M3.2 2.1c8 0 14.3 4.9 20.5 9.7 3.6 2.8 7.2 5.6 8.9 5.6 1.7 0 5.3-2.8 8.9-5.6C47.7 6.9 53.9 2.1 62 2.1c8 0 14.3 4.9 20.5 9.7 3.6 2.8 7.2 5.6 8.9 5.6 1.7 0 5.3-2.8 8.9-5.6 6.2-4.9 12.4-9.7 20.5-9.7 8 0 14.2 4.9 20.5 9.7 3.6 2.8 7.2 5.6 8.9 5.6 1.7 0 5.3-2.8 8.9-5.6 6.2-4.9 12.4-9.7 20.5-9.7 8 0 14.2 4.9 20.5 9.7 3.6 2.8 7.2 5.6 8.9 5.6 1.7 0 5.3-2.8 8.9-5.6 6.2-4.9 12.4-9.7 20.5-9.7 8 0 14.3 4.9 20.5 9.7 3.6 2.8 7.2 5.6 8.9 5.6 1.7 0 5.3-2.8 8.9-5.6 6.2-4.9 12.4-9.7 20.5-9.7 8 0 14.3 4.9 20.5 9.7 3.6 2.8 7.2 5.6 8.9 5.6 1.7 0 5.3-2.8 8.9-5.6 6.2-4.9 12.4-9.7 20.5-9.7 8 0 14.3 4.9 20.5 9.7 3.6 2.8 7.2 5.6 8.9 5.6 1.7 0 5.3-2.8 8.9-5.6 6.2-4.9 12.4-9.7 20.5-9.7v20.2c-1.7 0-5.3 2.8-8.9 5.6-6.2 4.9-12.4 9.7-20.5 9.7-8 0-14.3-4.9-20.5-9.7-3.6-2.8-7.2-5.6-8.9-5.6-1.7 0-5.3 2.8-8.9 5.6-6.2 4.9-12.4 9.7-20.5 9.7-8 0-14.3-4.9-20.5-9.7-3.6-2.8-7.2-5.6-8.9-5.6-1.7 0-5.3 2.8-8.9 5.6-6.2 4.9-12.4 9.7-20.5 9.7-8 0-14.3-4.9-20.5-9.7-3.6-2.8-7.2-5.6-8.9-5.6-1.7 0-5.3 2.8-8.9 5.6-6.2 4.9-12.4 9.7-20.5 9.7-8 0-14.3-4.9-20.5-9.7-3.6-2.8-7.2-5.6-8.9-5.6-1.7 0-5.3 2.8-8.9 5.6-6.2 4.9-12.4 9.7-20.5 9.7-8 0-14.2-4.9-20.5-9.7-3.6-2.8-7.2-5.6-8.9-5.6-1.7 0-5.3 2.8-8.9 5.6-6.2 4.9-12.4 9.7-20.5 9.7-8 0-14.3-4.9-20.5-9.7-3.6-2.8-7.2-5.6-8.9-5.6-1.7 0-5.3 2.8-8.9 5.6-6.2 4.9-12.4 9.7-20.5 9.7-8 0-14.2-4.9-20.5-9.7-3.6-2.8-7.2-5.6-8.9-5.6V2.1zm0 43.4c8 0 14.3 4.9 20.5 9.7 3.6 2.8 7.2 5.6 8.9 5.6 1.7 0 5.3-2.8 8.9-5.6 6.2-4.9 12.4-9.7 20.5-9.7 8 0 14.3 4.9 20.5 9.7 3.6 2.8 7.2 5.6 8.9 5.6 1.7 0 5.3-2.8 8.9-5.6 6.2-4.9 12.4-9.7 20.5-9.7 8 0 14.2 4.9 20.5 9.7 3.6 2.8 7.2 5.6 8.9 5.6 1.7 0 5.3-2.8 8.9-5.6 6.2-4.9 12.4-9.7 20.5-9.7 8 0 14.2 4.9 20.5 9.7 3.6 2.8 7.2 5.6 8.9 5.6 1.7 0 5.3-2.8 8.9-5.6 6.2-4.9 12.4-9.7 20.5-9.7 8 0 14.3 4.9 20.5 9.7 3.6 2.8 7.2 5.6 8.9 5.6 1.7 0 5.3-2.8 8.9-5.6 6.2-4.9 12.4-9.7 20.5-9.7 8 0 14.3 4.9 20.5 9.7 3.6 2.8 7.2 5.6 8.9 5.6 1.7 0 5.3-2.8 8.9-5.6 6.2-4.9 12.4-9.7 20.5-9.7 8 0 14.3 4.9 20.5 9.7 3.6 2.8 7.2 5.6 8.9 5.6 1.7 0 5.3-2.8 8.9-5.6 6.2-4.9 12.4-9.7 20.5-9.7v20.2c-1.7 0-5.3 2.8-8.9 5.6-6.2 4.9-12.4 9.7-20.5 9.7-8 0-14.3-4.9-20.5-9.7-3.6-2.8-7.2-5.6-8.9-5.6-1.7 0-5.3 2.8-8.9 5.6-6.2 4.9-12.4 9.7-20.5 9.7-8 0-14.3-4.9-20.5-9.7-3.6-2.8-7.2-5.6-8.9-5.6-1.7 0-5.3 2.8-8.9 5.6-6.2 4.9-12.4 9.7-20.5 9.7-8 0-14.3-4.9-20.5-9.7-3.6-2.8-7.2-5.6-8.9-5.6-1.7 0-5.3 2.8-8.9 5.6-6.2 4.9-12.4 9.7-20.5 9.7-8 0-14.3-4.9-20.5-9.7-3.6-2.8-7.2-5.6-8.9-5.6-1.7 0-5.3 2.8-8.9 5.6-6.2 4.9-12.4 9.7-20.5 9.7-8 0-14.2-4.9-20.5-9.7-3.6-2.8-7.2-5.6-8.9-5.6-1.7 0-5.3 2.8-8.9 5.6-6.2 4.9-12.4 9.7-20.5 9.7-8 0-14.3-4.9-20.5-9.7-3.6-2.8-7.2-5.6-8.9-5.6-1.7 0-5.3 2.8-8.9 5.6-6.3 4.9-12.5 9.7-20.6 9.7-8 0-14.2-4.9-20.5-9.7-3.6-2.8-7.2-5.6-8.9-5.6V45.5zm0 43.3c8 0 14.3 4.9 20.5 9.7 3.6 2.8 7.2 5.6 8.9 5.6 1.7 0 5.3-2.8 8.9-5.6 6.2-4.9 12.4-9.7 20.5-9.7 8 0 14.3 4.9 20.5 9.7 3.6 2.8 7.2 5.6 8.9 5.6 1.7 0 5.3-2.8 8.9-5.6 6.2-4.9 12.4-9.7 20.5-9.7 8 0 14.2 4.9 20.5 9.7 3.6 2.8 7.2 5.6 8.9 5.6 1.7 0 5.3-2.8 8.9-5.6 6.2-4.9 12.4-9.7 20.5-9.7 8 0 14.2 4.9 20.5 9.7 3.6 2.8 7.2 5.6 8.9 5.6 1.7 0 5.3-2.8 8.9-5.6 6.2-4.9 12.4-9.7 20.5-9.7 8 0 14.3 4.9 20.5 9.7 3.6 2.8 7.2 5.6 8.9 5.6 1.7 0 5.3-2.8 8.9-5.6 6.2-4.9 12.4-9.7 20.5-9.7 8 0 14.3 4.9 20.5 9.7 3.6 2.8 7.2 5.6 8.9 5.6 1.7 0 5.3-2.8 8.9-5.6 6.2-4.9 12.4-9.7 20.5-9.7 8 0 14.3 4.9 20.5 9.7 3.6 2.8 7.2 5.6 8.9 5.6 1.7 0 5.3-2.8 8.9-5.6 6.2-4.9 12.4-9.7 20.5-9.7V109c-1.7 0-5.3 2.8-8.9 5.6-6.2 4.9-12.4 9.7-20.5 9.7-8 0-14.3-4.9-20.5-9.7-3.6-2.8-7.2-5.6-8.9-5.6-1.7 0-5.3 2.8-8.9 5.6-6.2 4.9-12.4 9.7-20.5 9.7-8 0-14.3-4.9-20.5-9.7-3.6-2.8-7.2-5.6-8.9-5.6-1.7 0-5.3 2.8-8.9 5.6-6.2 4.9-12.4 9.7-20.5 9.7-8 0-14.3-4.9-20.5-9.7-3.6-2.8-7.2-5.6-8.9-5.6-1.7 0-5.3 2.8-8.9 5.6-6.2 4.9-12.4 9.7-20.5 9.7-8 0-14.3-4.9-20.5-9.7-3.6-2.8-7.2-5.6-8.9-5.6-1.7 0-5.3 2.8-8.9 5.6-6.2 4.9-12.4 9.7-20.5 9.7-8 0-14.2-4.9-20.5-9.7-3.6-2.8-7.2-5.6-8.9-5.6-1.7 0-5.3 2.8-8.9 5.6-6.2 4.9-12.4 9.7-20.5 9.7-8 0-14.3-4.9-20.5-9.7-3.6-2.8-7.2-5.6-8.9-5.6-1.7 0-5.3 2.8-8.9 5.6-6.2 4.9-12.4 9.7-20.5 9.7-8 0-14.2-4.9-20.5-9.7-3.6-2.8-7.2-5.6-8.9-5.6V88.8zm0 43.4c8 0 14.3 4.9 20.5 9.7 3.6 2.8 7.2 5.6 8.9 5.6 1.7 0 5.3-2.8 8.9-5.6 6.2-4.9 12.4-9.7 20.5-9.7 8 0 14.3 4.9 20.5 9.7 3.6 2.8 7.2 5.6 8.9 5.6 1.7 0 5.3-2.8 8.9-5.6 6.2-4.9 12.4-9.7 20.5-9.7 8 0 14.2 4.9 20.5 9.7 3.6 2.8 7.2 5.6 8.9 5.6 1.7 0 5.3-2.8 8.9-5.6 6.2-4.9 12.4-9.7 20.5-9.7 8 0 14.2 4.9 20.5 9.7 3.6 2.8 7.2 5.6 8.9 5.6 1.7 0 5.3-2.8 8.9-5.6 6.2-4.9 12.4-9.7 20.5-9.7 8 0 14.3 4.9 20.5 9.7 3.6 2.8 7.2 5.6 8.9 5.6 1.7 0 5.3-2.8 8.9-5.6 6.2-4.9 12.4-9.7 20.5-9.7 8 0 14.3 4.9 20.5 9.7 3.6 2.8 7.2 5.6 8.9 5.6 1.7 0 5.3-2.8 8.9-5.6 6.2-4.9 12.4-9.7 20.5-9.7 8 0 14.3 4.9 20.5 9.7 3.6 2.8 7.2 5.6 8.9 5.6 1.7 0 5.3-2.8 8.9-5.6 6.2-4.9 12.4-9.7 20.5-9.7v20.2c-1.7 0-5.3 2.8-8.9 5.6-6.2 4.9-12.4 9.7-20.5 9.7-8 0-14.3-4.9-20.5-9.7-3.6-2.8-7.2-5.6-8.9-5.6-1.7 0-5.3 2.8-8.9 5.6-6.2 4.9-12.4 9.7-20.5 9.7-8 0-14.3-4.9-20.5-9.7-3.6-2.8-7.2-5.6-8.9-5.6-1.7 0-5.3 2.8-8.9 5.6-6.2 4.9-12.4 9.7-20.5 9.7-8 0-14.3-4.9-20.5-9.7-3.6-2.8-7.2-5.6-8.9-5.6-1.7 0-5.3 2.8-8.9 5.6-6.2 4.9-12.4 9.7-20.5 9.7-8 0-14.3-4.9-20.5-9.7-3.6-2.8-7.2-5.6-8.9-5.6-1.7 0-5.3 2.8-8.9 5.6-6.2 4.9-12.4 9.7-20.5 9.7-8 0-14.2-4.9-20.5-9.7-3.6-2.8-7.2-5.6-8.9-5.6-1.7 0-5.3 2.8-8.9 5.6-6.2 4.9-12.4 9.7-20.5 9.7-8 0-14.3-4.9-20.5-9.7-3.6-2.8-7.2-5.6-8.9-5.6-1.7 0-5.3 2.8-8.9 5.6-6.2 4.9-12.4 9.7-20.5 9.7-8 0-14.2-4.9-20.5-9.7-3.6-2.8-7.2-5.6-8.9-5.6v-20.2zm0 43.4c8 0 14.3 4.9 20.5 9.7 3.6 2.8 7.2 5.6 8.9 5.6 1.7 0 5.3-2.8 8.9-5.6 6.2-4.9 12.4-9.7 20.5-9.7 8 0 14.3 4.9 20.5 9.7 3.6 2.8 7.2 5.6 8.9 5.6 1.7 0 5.3-2.8 8.9-5.6 6.2-4.9 12.4-9.7 20.5-9.7 8 0 14.2 4.9 20.5 9.7 3.6 2.8 7.2 5.6 8.9 5.6 1.7 0 5.3-2.8 8.9-5.6 6.2-4.9 12.4-9.7 20.5-9.7 8 0 14.2 4.9 20.5 9.7 3.6 2.8 7.2 5.6 8.9 5.6 1.7 0 5.3-2.8 8.9-5.6 6.2-4.9 12.4-9.7 20.5-9.7 8 0 14.3 4.9 20.5 9.7 3.6 2.8 7.2 5.6 8.9 5.6 1.7 0 5.3-2.8 8.9-5.6 6.2-4.9 12.4-9.7 20.5-9.7 8 0 14.3 4.9 20.5 9.7 3.6 2.8 7.2 5.6 8.9 5.6 1.7 0 5.3-2.8 8.9-5.6 6.2-4.9 12.4-9.7 20.5-9.7 8 0 14.3 4.9 20.5 9.7 3.6 2.8 7.2 5.6 8.9 5.6 1.7 0 5.3-2.8 8.9-5.6 6.2-4.9 12.4-9.7 20.5-9.7v20.2c-1.7 0-5.3 2.8-8.9 5.6-6.2 4.9-12.4 9.7-20.5 9.7-8 0-14.3-4.9-20.5-9.7-3.6-2.8-7.2-5.6-8.9-5.6-1.7 0-5.3 2.8-8.9 5.6-6.2 4.9-12.4 9.7-20.5 9.7-8 0-14.3-4.9-20.5-9.7-3.6-2.8-7.2-5.6-8.9-5.6-1.7 0-5.3 2.8-8.9 5.6-6.2 4.9-12.4 9.7-20.5 9.7-8 0-14.3-4.9-20.5-9.7-3.6-2.8-7.2-5.6-8.9-5.6-1.7 0-5.3 2.8-8.9 5.6-6.2 4.9-12.4 9.7-20.5 9.7-8 0-14.3-4.9-20.5-9.7-3.6-2.8-7.2-5.6-8.9-5.6-1.7 0-5.3 2.8-8.9 5.6-6.2 4.9-12.4 9.7-20.5 9.7-8 0-14.2-4.9-20.5-9.7-3.6-2.8-7.2-5.6-8.9-5.6-1.7 0-5.3 2.8-8.9 5.6-6.2 4.9-12.4 9.7-20.5 9.7-8 0-14.3-4.9-20.5-9.7-3.6-2.8-7.2-5.6-8.9-5.6-1.7 0-5.3 2.8-8.9 5.6-6.2 4.9-12.4 9.7-20.5 9.7-8 0-14.2-4.9-20.5-9.7-3.6-2.8-7.2-5.6-8.9-5.6v-20.2zm0 43.4c8 0 14.3 4.9 20.5 9.7 3.6 2.8 7.2 5.6 8.9 5.6 1.7 0 5.3-2.8 8.9-5.6 6.2-4.9 12.4-9.7 20.5-9.7 8 0 14.3 4.9 20.5 9.7 3.6 2.8 7.2 5.6 8.9 5.6 1.7 0 5.3-2.8 8.9-5.6 6.2-4.9 12.4-9.7 20.5-9.7 8 0 14.2 4.9 20.5 9.7 3.6 2.8 7.2 5.6 8.9 5.6 1.7 0 5.3-2.8 8.9-5.6 6.2-4.9 12.4-9.7 20.5-9.7 8 0 14.2 4.9 20.5 9.7 3.6 2.8 7.2 5.6 8.9 5.6 1.7 0 5.3-2.8 8.9-5.6 6.2-4.9 12.4-9.7 20.5-9.7 8 0 14.3 4.9 20.5 9.7 3.6 2.8 7.2 5.6 8.9 5.6 1.7 0 5.3-2.8 8.9-5.6 6.2-4.9 12.4-9.7 20.5-9.7 8 0 14.3 4.9 20.5 9.7 3.6 2.8 7.2 5.6 8.9 5.6 1.7 0 5.3-2.8 8.9-5.6 6.2-4.9 12.4-9.7 20.5-9.7 8 0 14.3 4.9 20.5 9.7 3.6 2.8 7.2 5.6 8.9 5.6 1.7 0 5.3-2.8 8.9-5.6 6.2-4.9 12.4-9.7 20.5-9.7v20.2c-1.7 0-5.3 2.8-8.9 5.6-6.2 4.9-12.4 9.7-20.5 9.7-8 0-14.3-4.9-20.5-9.7-3.6-2.8-7.2-5.6-8.9-5.6-1.7 0-5.3 2.8-8.9 5.6-6.2 4.9-12.4 9.7-20.5 9.7-8 0-14.3-4.9-20.5-9.7-3.6-2.8-7.2-5.6-8.9-5.6-1.7 0-5.3 2.8-8.9 5.6-6.2 4.9-12.4 9.7-20.5 9.7-8 0-14.3-4.9-20.5-9.7-3.6-2.8-7.2-5.6-8.9-5.6-1.7 0-5.3 2.8-8.9 5.6-6.2 4.9-12.4 9.7-20.5 9.7-8 0-14.3-4.9-20.5-9.7-3.6-2.8-7.2-5.6-8.9-5.6-1.7 0-5.3 2.8-8.9 5.6-6.2 4.9-12.4 9.7-20.5 9.7-8 0-14.2-4.9-20.5-9.7-3.6-2.8-7.2-5.6-8.9-5.6-1.7 0-5.3 2.8-8.9 5.6-6.2 4.9-12.4 9.7-20.5 9.7-8 0-14.3-4.9-20.5-9.7-3.6-2.8-7.2-5.6-8.9-5.6-1.7 0-5.3 2.8-8.9 5.6-6.2 4.9-12.4 9.7-20.5 9.7-8 0-14.2-4.9-20.5-9.7-3.6-2.8-7.2-5.6-8.9-5.6V219zm0 43.4c8 0 14.3 4.9 20.5 9.7 3.6 2.8 7.2 5.6 8.9 5.6 1.7 0 5.3-2.8 8.9-5.6 6.2-4.9 12.4-9.7 20.5-9.7 8 0 14.3 4.9 20.5 9.7 3.6 2.8 7.2 5.6 8.9 5.6 1.7 0 5.3-2.8 8.9-5.6 6.2-4.9 12.4-9.7 20.5-9.7 8 0 14.2 4.9 20.5 9.7 3.6 2.8 7.2 5.6 8.9 5.6 1.7 0 5.3-2.8 8.9-5.6 6.2-4.9 12.4-9.7 20.5-9.7 8 0 14.2 4.9 20.5 9.7 3.6 2.8 7.2 5.6 8.9 5.6 1.7 0 5.3-2.8 8.9-5.6 6.2-4.9 12.4-9.7 20.5-9.7 8 0 14.3 4.9 20.5 9.7 3.6 2.8 7.2 5.6 8.9 5.6 1.7 0 5.3-2.8 8.9-5.6 6.2-4.9 12.4-9.7 20.5-9.7 8 0 14.3 4.9 20.5 9.7 3.6 2.8 7.2 5.6 8.9 5.6 1.7 0 5.3-2.8 8.9-5.6 6.2-4.9 12.4-9.7 20.5-9.7 8 0 14.3 4.9 20.5 9.7 3.6 2.8 7.2 5.6 8.9 5.6 1.7 0 5.3-2.8 8.9-5.6 6.2-4.9 12.4-9.7 20.5-9.7v20.2c-1.7 0-5.3 2.8-8.9 5.6-6.2 4.9-12.4 9.7-20.5 9.7-8 0-14.3-4.9-20.5-9.7-3.6-2.8-7.2-5.6-8.9-5.6-1.7 0-5.3 2.8-8.9 5.6-6.2 4.9-12.4 9.7-20.5 9.7-8 0-14.3-4.9-20.5-9.7-3.6-2.8-7.2-5.6-8.9-5.6-1.7 0-5.3 2.8-8.9 5.6-6.2 4.9-12.4 9.7-20.5 9.7-8 0-14.3-4.9-20.5-9.7-3.6-2.8-7.2-5.6-8.9-5.6-1.7 0-5.3 2.8-8.9 5.6-6.2 4.9-12.4 9.7-20.5 9.7-8 0-14.3-4.9-20.5-9.7-3.6-2.8-7.2-5.6-8.9-5.6-1.7 0-5.3 2.8-8.9 5.6-6.2 4.9-12.4 9.7-20.5 9.7-8 0-14.2-4.9-20.5-9.7-3.6-2.8-7.2-5.6-8.9-5.6-1.7 0-5.3 2.8-8.9 5.6-6.2 4.9-12.4 9.7-20.5 9.7-8 0-14.3-4.9-20.5-9.7-3.6-2.8-7.2-5.6-8.9-5.6-1.7 0-5.3 2.8-8.9 5.6-6.2 4.9-12.4 9.7-20.5 9.7-8 0-14.2-4.9-20.5-9.7-3.6-2.8-7.2-5.6-8.9-5.6v-20.2zm0 43.4c8 0 14.3 4.9 20.5 9.7 3.6 2.8 7.2 5.6 8.9 5.6 1.7 0 5.3-2.8 8.9-5.6 6.2-4.9 12.4-9.7 20.5-9.7 8 0 14.3 4.9 20.5 9.7 3.6 2.8 7.2 5.6 8.9 5.6 1.7 0 5.3-2.8 8.9-5.6 6.2-4.9 12.4-9.7 20.5-9.7 8 0 14.2 4.9 20.5 9.7 3.6 2.8 7.2 5.6 8.9 5.6 1.7 0 5.3-2.8 8.9-5.6 6.2-4.9 12.4-9.7 20.5-9.7 8 0 14.2 4.9 20.5 9.7 3.6 2.8 7.2 5.6 8.9 5.6 1.7 0 5.3-2.8 8.9-5.6 6.2-4.9 12.4-9.7 20.5-9.7 8 0 14.3 4.9 20.5 9.7 3.6 2.8 7.2 5.6 8.9 5.6 1.7 0 5.3-2.8 8.9-5.6 6.2-4.9 12.4-9.7 20.5-9.7 8 0 14.3 4.9 20.5 9.7 3.6 2.8 7.2 5.6 8.9 5.6 1.7 0 5.3-2.8 8.9-5.6 6.2-4.9 12.4-9.7 20.5-9.7 8 0 14.3 4.9 20.5 9.7 3.6 2.8 7.2 5.6 8.9 5.6 1.7 0 5.3-2.8 8.9-5.6 6.2-4.9 12.4-9.7 20.5-9.7V326c-1.7 0-5.3 2.8-8.9 5.6-6.2 4.9-12.4 9.7-20.5 9.7-8 0-14.3-4.9-20.5-9.7-3.6-2.8-7.2-5.6-8.9-5.6-1.7 0-5.3 2.8-8.9 5.6-6.2 4.9-12.4 9.7-20.5 9.7-8 0-14.3-4.9-20.5-9.7-3.6-2.8-7.2-5.6-8.9-5.6-1.7 0-5.3 2.8-8.9 5.6-6.2 4.9-12.4 9.7-20.5 9.7-8 0-14.3-4.9-20.5-9.7-3.6-2.8-7.2-5.6-8.9-5.6-1.7 0-5.3 2.8-8.9 5.6-6.2 4.9-12.4 9.7-20.5 9.7-8 0-14.3-4.9-20.5-9.7-3.6-2.8-7.2-5.6-8.9-5.6-1.7 0-5.3 2.8-8.9 5.6-6.2 4.9-12.4 9.7-20.5 9.7-8 0-14.2-4.9-20.5-9.7-3.6-2.8-7.2-5.6-8.9-5.6-1.7 0-5.3 2.8-8.9 5.6-6.2 4.9-12.4 9.7-20.5 9.7-8 0-14.3-4.9-20.5-9.7-3.6-2.8-7.2-5.6-8.9-5.6-1.7 0-5.3 2.8-8.9 5.6-6.2 4.9-12.4 9.7-20.5 9.7-8 0-14.2-4.9-20.5-9.7-3.6-2.8-7.2-5.6-8.9-5.6v-20.2z" fill-rule="evenodd" clip-rule="evenodd"/></svg>