<svg xmlns="http://www.w3.org/2000/svg" viewBox="0 0 480 480"><path d="M304 128c-13.255 0-24 10.745-24 24v8h16v-8a8 8 0 0116 0v8h16v-8c0-13.255-10.745-24-24-24zm80 0c-13.255 0-24 10.745-24 24v8h16v-8a8 8 0 0116 0v8h16v-8c0-13.255-10.745-24-24-24zm-24 56v8c0 8.837-7.163 16-16 16s-16-7.163-16-16v-8h-16v8c0 17.673 14.327 32 32 32 17.673 0 32-14.327 32-32v-8h-16z"/><path d="M424 256h-40v-8.8a95.25 95.25 0 0054.632-71.2H448c13.255 0 24-10.745 24-24s-10.745-24-24-24h-8V0H320c-39.746.044-71.956 32.254-72 72v56h-8c-13.255 0-24 10.745-24 24s10.745 24 24 24h9.368A95.25 95.25 0 00304 247.2v8.8h-40c-30.913.035-55.965 25.087-56 56v8h-48v-8c0-13.255-10.745-24-24-24h-32c-13.255 0-24 10.745-24 24v8H8a8 8 0 00-8 8v144a8 8 0 008 8h464a8 8 0 008-8V312c-.035-30.913-25.087-55.965-56-56zm16-112h8a8 8 0 010 16h-8v-16zm-192 16h-8a8 8 0 010-16h8v16zm160 112l-32.864 43.824-1.48-1.48L355.312 296l24-24H408zm-51.312 48l-8 8h-9.376l-8-8L344 307.312 356.688 320zm-25.376-48h25.376L344 284.688 331.312 272zM264 72c.035-30.913 25.087-55.965 56-56h104v48h-72v8c0 13.255-10.745 24-24 24h-64V72zm0 88v-48h64c19.002-.021 35.375-13.387 39.2-32H424v80c.109 32.976-20.144 62.599-50.912 74.464a8 8 0 00-5.088 7.448V256h-48v-14.088a8 8 0 00-5.088-7.448C284.144 222.599 263.891 192.976 264 160zm44.688 112l24 24-18.344 18.344-1.48 1.48L280 272h28.688zM96 312a8 8 0 018-8h32a8 8 0 018 8v8H96v-8zm128 152H16v-56h80v24a8 8 0 008 8h32a8 8 0 008-8v-24h80v56zm-112-40v-16h16v16h-16zm112-32H16v-56h208v56zm16 72V328a8 8 0 00-8-8h-8v-8c.067-20.587 15.779-37.747 36.28-39.624L305.6 332.8a8 8 0 005.832 3.2H312a8 8 0 005.656-2.344l2.344-2.344 7.432 7.432-15.32 91.936a7.998 7.998 0 001.488 6.12L334 464h-94zm88.456-34.064L342.776 344h2.448l14.32 85.936L344 450.664l-15.544-20.728zM464 464H354l20.4-27.2a7.998 7.998 0 001.488-6.12l-15.32-91.936 7.432-7.432 2.344 2.344A8 8 0 00376 336h.568a8 8 0 005.832-3.2l45.32-60.424c20.501 1.877 36.213 19.037 36.28 39.624v152z"/></svg>