<svg height="512pt" viewBox="0 0 512 512" width="512pt" xmlns="http://www.w3.org/2000/svg"><path d="M462 351c-11.387 0-21.887 3.832-30.3 10.266l-69.7-40.86v-70.453a84.877 84.877 0 0049.55 15.922c46.938 0 85.126-38.188 85.126-85.125s-38.188-85.125-85.125-85.125c-5.196 0-10.336.469-15.387 1.398-8.523-25.246-24.129-47.894-44.953-64.914C325.879 11.402 293.875 0 261.1 0c-41.445 0-79.84 17.465-106.91 48.273a110.395 110.395 0 00-28.242-3.648c-60.996 0-110.625 49.625-110.625 110.625S64.95 265.875 125.95 265.875c8.137 0 16.196-.898 24.051-2.64V366H97.7c-6.387-20.266-25.352-35-47.7-35-27.57 0-50 22.43-50 50s22.43 50 50 50c22.348 0 41.313-14.734 47.7-35H180V259.672a141.968 141.968 0 0061 23.906v130.723c-20.266 6.387-35 25.351-35 47.699 0 27.57 22.43 50 50 50s50-22.43 50-50c0-22.348-14.734-41.313-35-47.7V284.653a142.315 142.315 0 0061-18.547v71.489l82.348 48.273A49.838 49.838 0 00412 401c0 27.57 22.43 50 50 50s50-22.43 50-50-22.43-50-50-50zM50 401c-11.027 0-20-8.973-20-20s8.973-20 20-20 20 8.973 20 20-8.973 20-20 20zm226 61c0 11.027-8.973 20-20 20s-20-8.973-20-20 8.973-20 20-20 20 8.973 20 20zm-20-294c-11.027 0-20-8.973-20-20s8.973-20 20-20 20 8.973 20 20-8.973 20-20 20zm90.36 47.895c-19.247 22.332-46.294 36.101-75.36 38.664v-58.86c20.266-6.387 35-25.351 35-47.699 0-27.57-22.43-50-50-50s-50 22.43-50 50c0 22.348 14.734 41.313 35 47.7v57.495a112.204 112.204 0 01-55.39-27.285l-8.298-7.515-9.562 5.816c-12.559 7.629-27.012 11.664-41.8 11.664-44.458 0-80.626-36.168-80.626-80.625s36.168-80.625 80.625-80.625c9.684 0 19.16 1.707 28.18 5.07l10.465 3.903 6.738-8.907C192.824 46.29 225.543 30 261.102 30c25.875 0 51.132 9 71.125 25.34 19.726 16.12 33.52 38.625 38.847 63.367l3.727 17.313 16.465-6.524a54.781 54.781 0 0120.285-3.871c30.394 0 55.125 24.73 55.125 55.125s-24.73 55.125-55.125 55.125c-16.371 0-31.797-7.219-42.317-19.809l-11.332-13.562zM462 421c-11.027 0-20-8.973-20-20s8.973-20 20-20 20 8.973 20 20-8.973 20-20 20zm0 0"/></svg>