<svg xmlns="http://www.w3.org/2000/svg" viewBox="0 0 511.999 511.999"><path d="M474.955 180.435h-9.076V37.745l-24.707 19.758c-65.908 52.707-133.799 84.393-179.146 101.694-27.97 10.67-51.04 17.334-65.844 21.118v-12.046H40.558v27.038H0v112.206h40.558v27.038h33.879l30.419 139.705h94.488l-30.419-139.705h27.256v-12.046c14.804 3.784 37.874 10.446 65.844 21.118 45.347 17.3 113.238 48.988 179.146 101.694l24.707 19.758V322.381h9.076c20.426 0 37.045-16.618 37.045-37.045v-67.858c.001-20.425-16.618-37.043-37.044-37.043zM40.558 277.094H30.417v-51.372h10.141v51.372zm88.806 166.742l-23.796-109.288h32.228l23.795 109.288h-32.227zm36.4-140.423v.718H70.975V198.685h94.789v104.728zm269.697-122.978V402.76c-61.138-44.255-121.463-71.924-163.397-87.865-34.17-12.989-61.103-20.238-75.883-23.741v-79.491c14.78-3.503 41.713-10.751 75.883-23.741 41.934-15.941 102.258-43.61 163.397-87.866v80.379zm46.122 104.902a6.636 6.636 0 01-6.628 6.628h-9.076v-81.112h9.076a6.636 6.636 0 016.628 6.627v67.857z"/></svg>