<svg height="511pt" viewBox="0 0 511 512" width="511pt" xmlns="http://www.w3.org/2000/svg"><path d="M482.922 136.523l23.7-23.699c12.554-12.554 3.663-34.14-14.142-34.14h-58.664V20.02c0-17.766-21.558-26.723-34.14-14.141l-23.7 23.7C339.302 10.202 298.317.018 256.489.018 115.012.02.5 114.513.5 256.013.5 397.488 114.992 512 256.488 512c141.48 0 255.992-114.492 255.992-255.988 0-41.828-10.183-82.813-29.558-119.489zm-69.106-17.84H444.2l-38.668 38.665h-50.379v-50.383L393.816 68.3v30.383c0 11.043 8.954 20 20 20zm-77.332 137.329c0 44.11-35.886 79.996-79.996 79.996s-79.996-35.887-79.996-79.996c0-44.114 35.887-80 79.996-80 14.817 0 28.692 4.066 40.606 11.113l-54.746 54.742c-7.809 7.813-7.809 20.477 0 28.285s20.472 7.809 28.28 0l54.747-54.746a79.468 79.468 0 0111.11 40.606zM256.488 472C137.391 472 40.5 375.11 40.5 256.012S137.39 40.02 256.488 40.02c31.102 0 61.645 6.66 89.625 19.417l-25.101 25.106a20 20 0 00-5.86 14.14v52.684c-17.355-9.77-37.367-15.351-58.664-15.351-66.164 0-119.996 53.828-119.996 119.996 0 66.164 53.832 119.992 119.996 119.992 66.164 0 119.996-53.828 119.996-119.992 0-21.297-5.582-41.309-15.351-58.664h52.683a20 20 0 0014.141-5.86l25.102-25.101c12.761 27.976 19.421 58.52 19.421 89.62C472.48 375.11 375.586 472 256.488 472zm0 0"/></svg>