<svg xmlns="http://www.w3.org/2000/svg" viewBox="0 0 512 512"><path d="M486.4 179.196c-14.132.015-25.585 11.468-25.6 25.6v1.652l-34.133 7.421V59.729l-.001-.002C426.622 26.757 399.903.043 366.933.004h-307.2c-.069 0-.127.037-.195.04C26.619.102-.028 26.819 0 59.738v127.991a8.53 8.53 0 008.534 8.534H102.4v290.133c.015 14.132 11.468 25.585 25.6 25.6h273.067c14.132-.015 25.585-11.468 25.6-25.6V366.39l34.133 7.421v1.652c0 14.138 11.461 25.6 25.6 25.6s25.6-11.462 25.6-25.6V204.796c-.015-14.132-11.468-25.585-25.6-25.6zm-384 0H17.067V59.738a42.672 42.672 0 0143.941-42.667c23.552 1.473 41.783 21.205 41.392 44.8v117.325zm307.2 307.2a8.538 8.538 0 01-8.533 8.533H128a8.54 8.54 0 01-8.533-8.533V61.871a62.833 62.833 0 00-18.848-44.8h266.315c23.553.028 42.639 19.114 42.667 42.667v157.84L281.396 245.45c-1.047-13.696-12.742-24.11-26.468-23.569-13.726.542-24.564 11.845-24.528 25.581h-51.2a8.533 8.533 0 00-8.533 8.533 8.533 8.533 0 008.533 8.533h51.2v25.6h-51.2c-4.713 0-8.533 3.82-8.533 8.533s3.82 8.533 8.533 8.533h51.2v25.6h-51.2a8.533 8.533 0 000 17.066h57.858a25.407 25.407 0 0044.338-15.055l17.27 3.755v15.824c.001 12.006 8.353 22.395 20.079 24.975l42.65 9.458a25.546 25.546 0 0031.138-24.967v-4.884l17.067 3.71v123.72zM264.533 247.462v85.333a8.533 8.533 0 01-17.066 0v-85.333a8.533 8.533 0 0117.066 0zm51.2 106.925v-12.113l59.733 12.985v8.595a8.503 8.503 0 01-3.191 6.675 8.252 8.252 0 01-7.163 1.633l-42.608-9.45a8.575 8.575 0 01-6.771-8.325zm145.067 1.95l-179.2-38.956v-54.504l179.2-38.956v132.416zm34.133 19.125c0 4.713-3.82 8.533-8.533 8.533s-8.533-3.82-8.533-8.533V204.796c0-4.713 3.82-8.533 8.533-8.533s8.533 3.82 8.533 8.533v170.666z"/><path d="M264.533 196.262c42.415 0 76.8-34.385 76.8-76.8s-34.385-76.8-76.8-76.8-76.8 34.385-76.8 76.8c.048 42.396 34.405 76.753 76.8 76.8zm25.6-22.912a58.98 58.98 0 01-51.2 0v-7.637c1.52-12.687 12.878-21.849 25.6-20.65a27.932 27.932 0 0118.587 6.633 18.262 18.262 0 017.013 14.017v7.637zm-42.666-62.421c0-9.426 7.641-17.067 17.067-17.067s17.067 7.641 17.067 17.067-7.641 17.067-17.067 17.067c-9.422-.011-17.057-7.646-17.067-17.067zm-38.128-14.331c9.242-22.326 31.03-36.881 55.194-36.869 24.165-.012 45.954 14.543 55.195 36.871s4.112 48.025-12.993 65.094a35.593 35.593 0 00-12.518-22.973 41.192 41.192 0 00-5.388-3.873c13.2-13.37 13.114-34.894-.192-48.159s-34.83-13.284-48.159-.042-13.453 34.765-.276 48.158a37.069 37.069 0 00-17.875 26.884c-17.103-17.069-22.229-42.765-12.988-65.091zM179.2 392.529h102.4c4.713 0 8.533-3.82 8.533-8.533s-3.82-8.533-8.533-8.533H179.2c-4.713 0-8.533 3.82-8.533 8.533s3.82 8.533 8.533 8.533zm170.667 25.6H179.2c-4.713 0-8.533 3.82-8.533 8.533s3.82 8.533 8.533 8.533h170.667c4.713 0 8.533-3.82 8.533-8.533s-3.82-8.533-8.533-8.533z"/></svg>