<svg xmlns="http://www.w3.org/2000/svg" width="70" height="70"><defs><clipPath id="a"><path transform="translate(1078 2409)" stroke="#707070" fill="#4285f4" d="M0 0h70v70H0z"/></clipPath></defs><g transform="translate(-1078 -2409)" clip-path="url(#a)"><path d="M1078 2409h70v70h-70z" fill="none"/><path d="M1145.083 2426.5v-11.667a2.925 2.925 0 00-2.917-2.917H1130.5a2.925 2.925 0 00-2.917 2.917v2.917h-29.166v-2.917a2.925 2.925 0 00-2.917-2.916h-11.667a2.925 2.925 0 00-2.916 2.916v11.667a2.925 2.925 0 002.917 2.917h2.916v29.166h-2.917a2.925 2.925 0 00-2.916 2.917v11.667a2.925 2.925 0 002.917 2.917h11.666a2.925 2.925 0 002.917-2.917v-2.917h29.166v2.917a2.925 2.925 0 002.917 2.916h11.667a2.925 2.925 0 002.917-2.917V2461.5a2.925 2.925 0 00-2.917-2.917h-2.917v-29.166h2.917a2.925 2.925 0 002.916-2.917zm-58.333-8.75h5.833v5.833h-5.833zm5.833 52.5h-5.833v-5.833h5.833zm35-5.833h-29.166v-2.917a2.925 2.925 0 00-2.917-2.917h-2.917v-29.166h2.917a2.925 2.925 0 002.917-2.917v-2.917h29.166v2.917a2.925 2.925 0 002.917 2.917h2.917v29.166h-2.917a2.925 2.925 0 00-2.917 2.917zm11.667 5.833h-5.833v-5.833h5.833zm-5.833-46.667v-5.833h5.833v5.833zm-17.675 7.73a2.975 2.975 0 00-2.771-1.9 2.908 2.908 0 00-2.742 1.9l-8.079 21.379a2.185 2.185 0 002.042 2.975 2.2 2.2 0 002.071-1.458l1.6-4.375h10.183l1.633 4.4a2.217 2.217 0 002.071 1.429h.029a2.212 2.212 0 002.071-2.975zm-6.563 14.845l3.821-11.17 3.792 11.171z" fill="#4285f4"/></g></svg>