<svg xmlns="http://www.w3.org/2000/svg" viewBox="0 0 512 512"><path d="M256 0C148.477 0 61 87.477 61 195c0 68.893 35.912 129.557 90 164.254V497a15 15 0 0023.32 12.481L256 455.028l81.68 54.453A14.998 14.998 0 00361 497V359.254c54.088-34.697 90-95.361 90-164.254C451 87.477 363.523 0 256 0zm75 468.972l-66.68-44.453a15 15 0 00-16.641 0L181 468.972v-93.981C204.1 384.653 229.436 390 256 390s51.9-5.347 75-15.009v93.981zM256 360c-90.981 0-165-74.019-165-165S165.019 30 256 30s165 74.019 165 165-74.018 165-165 165z"/><path d="M375.286 159.909a15 15 0 00-12.179-10.277l-64.804-9.194-28.916-57.205a15 15 0 00-26.774 0l-28.916 57.205-64.804 9.194a15.001 15.001 0 00-8.234 25.717l46.676 44.422-11.002 62.633a14.999 14.999 0 0021.624 15.94L256 268.551l58.043 29.794a15.003 15.003 0 0021.624-15.94l-11.002-62.633 46.676-44.422a15.002 15.002 0 003.945-15.441zm-77.127 43.674a15 15 0 00-4.433 13.461l7.173 40.833-38.049-19.531a15.001 15.001 0 00-13.7 0l-38.049 19.531 7.173-40.833a15 15 0 00-4.433-13.461l-30.052-28.601 41.871-5.94a15.002 15.002 0 0011.28-8.084L256 123.25l19.06 37.707a14.995 14.995 0 0011.28 8.084l41.871 5.94-30.052 28.602z"/></svg>