<svg xmlns="http://www.w3.org/2000/svg" viewBox="0 0 512.001 512.001"><path d="M296.583 152.383a46.424 46.424 0 006.619-23.937c0-25.758-20.956-46.715-46.715-46.715s-46.715 20.956-46.715 46.715a46.423 46.423 0 006.653 23.996c-20.325 10.686-34.226 32.002-34.226 56.517v15.01h148.724v-15.01c.001-24.56-13.951-45.91-34.34-56.576zm-40.095-40.63c9.204 0 16.694 7.488 16.694 16.694s-7.488 16.693-16.694 16.693-16.694-7.488-16.694-16.693c.001-9.205 7.489-16.694 16.694-16.694zm-40.746 82.194c5.537-11.126 17.03-18.787 30.278-18.787h21.086c13.248 0 24.741 7.662 30.278 18.787h-81.642z"/><path d="M477.658 152.382a46.423 46.423 0 006.618-23.937c0-25.758-20.955-46.715-46.714-46.715-24.696 0-44.965 19.267-46.596 43.558C370.315 62.231 307.243 20.334 238.943 28.7c-56.656 6.939-101.474 46.576-117.864 97.663-1.094-24.795-21.6-44.632-46.661-44.632-25.758 0-46.715 20.956-46.715 46.715a46.426 46.426 0 006.653 23.996C14.031 163.128.13 184.445.13 208.958v15.01h125.091c7.657 18.391 19.025 34.686 33.074 48.072l-19.299 24.932-25.754-19.543L0 422.281l73.902 57.774 114.075-145.916-25.064-19.018 19.171-24.768c21.754 13.366 47.205 20.981 73.999 20.981 5.725 0 11.523-.348 17.345-1.062 37.605-4.605 71.165-23.579 94.5-53.426 7.972-10.197 14.421-21.247 19.278-32.876H512v-15.01c0-24.561-13.954-45.911-34.342-56.578zm-403.24-40.629c9.203 0 16.693 7.488 16.693 16.694s-7.488 16.693-16.693 16.693c-9.204 0-16.694-7.488-16.694-16.693 0-9.205 7.49-16.694 16.694-16.694zm-40.747 82.194c5.537-11.126 17.03-18.787 30.278-18.787h21.087c13.248 0 24.741 7.662 30.278 18.787H33.671zm35.068 243.968L42.14 417.12l76.528-97.887 26.898 20.411-76.827 98.271zm297.414-247.927a63.047 63.047 0 00-2.156 9.382c-3.877 13.985-10.512 27.205-19.721 38.983-18.395 23.53-44.852 38.488-74.497 42.118-61.186 7.486-117.084-36.194-124.579-97.393-7.494-61.198 36.195-117.084 97.393-124.579a112.58 112.58 0 0113.674-.837c55.643 0 103.973 41.627 110.906 98.231 1.41 11.527 1.035 22.996-1.02 34.095zm71.41-78.235c9.203 0 16.693 7.488 16.693 16.694s-7.488 16.693-16.693 16.693c-9.204 0-16.694-7.488-16.694-16.693 0-9.205 7.49-16.694 16.694-16.694zm-40.748 82.194c5.537-11.126 17.03-18.787 30.278-18.787h21.087c13.248 0 24.741 7.662 30.278 18.787h-81.643z"/><path d="M296.583 412.775a46.426 46.426 0 006.619-23.937c0-25.758-20.956-46.714-46.715-46.714s-46.715 20.956-46.715 46.714a46.423 46.423 0 006.653 23.996c-20.325 10.686-34.226 32.002-34.226 56.516v15.01h148.724v-15.01c.001-24.559-13.951-45.908-34.34-56.575zm-40.095-40.629c9.204 0 16.694 7.488 16.694 16.693 0 9.204-7.488 16.694-16.694 16.694s-16.694-7.488-16.694-16.694 7.489-16.693 16.694-16.693zm-40.746 82.194c5.537-11.126 17.03-18.787 30.278-18.787h21.086c13.248 0 24.741 7.662 30.278 18.787h-81.642zm261.916-41.565a46.424 46.424 0 006.619-23.937c0-25.758-20.955-46.714-46.714-46.714s-46.715 20.956-46.715 46.714a46.423 46.423 0 006.653 23.996c-20.325 10.686-34.226 32.002-34.226 56.516v15.01H512v-15.01c0-24.559-13.954-45.909-34.342-56.575zm-40.095-40.629c9.203 0 16.693 7.488 16.693 16.693 0 9.204-7.488 16.694-16.693 16.694-9.204 0-16.694-7.488-16.694-16.694s7.49-16.693 16.694-16.693zm-40.748 82.194c5.537-11.126 17.03-18.787 30.278-18.787h21.087c13.248 0 24.741 7.662 30.278 18.787h-81.643z"/></svg>