<svg xmlns="http://www.w3.org/2000/svg" viewBox="0 0 512 512"><circle cx="53.333" cy="74.667" r="10.667"/><circle cx="96" cy="74.667" r="10.667"/><circle cx="138.667" cy="74.667" r="10.667"/><path d="M117.333 234.667H352c5.896 0 10.667-4.771 10.667-10.667s-4.771-10.667-10.667-10.667H117.333c-5.896 0-10.667 4.771-10.667 10.667s4.772 10.667 10.667 10.667zm128 106.666h-128A10.66 10.66 0 00106.666 352a10.66 10.66 0 0010.667 10.667h128A10.66 10.66 0 00256 352a10.66 10.66 0 00-10.667-10.667z"/><path d="M471.167 149.333c-.618 0-1.217.155-1.833.184V64c0-23.531-19.146-42.667-42.667-42.667h-384C19.146 21.333 0 40.469 0 64v384c0 23.531 19.146 42.667 42.667 42.667h384c23.521 0 42.667-19.135 42.667-42.667V249.745l30.708-30.703v-.01c7.604-7.604 11.958-18.125 11.958-28.865 0-22.521-18.312-40.834-40.833-40.834zM21.333 64c0-11.76 9.563-21.333 21.333-21.333h384C438.438 42.667 448 52.24 448 64v42.667H21.333V64zM448 448c0 11.76-9.563 21.333-21.333 21.333h-384c-11.771 0-21.333-9.573-21.333-21.333V128H448v28.62c-2.025 1.392-3.962 2.923-5.708 4.672l-116.06 116.042H117.333c-5.896 0-10.667 4.771-10.667 10.667s4.771 10.667 10.667 10.667h191.785l-10.243 51.24c-.708 3.5.396 7.115 2.917 9.635a10.68 10.68 0 007.542 3.125c.688 0 1.396-.073 2.083-.208l53.313-10.667a10.601 10.601 0 005.458-2.917l77.812-77.8V448zm-90.604-116.49l-34.458 6.896 6.896-34.5 96.828-96.828 27.587 27.587-96.853 96.845zm127.562-127.552l-15.625 15.625-27.589-27.589 15.63-15.63a19.662 19.662 0 0113.792-5.698c10.75 0 19.5 8.75 19.5 19.5.001 5.126-2.083 10.157-5.708 13.792z"/></svg>