<svg xmlns="http://www.w3.org/2000/svg" height="512pt" viewBox="0 0 512.001 512" width="512pt"><path d="M509 488L292.102 198.8c-5.75-7.663-13.059-13.28-21.102-16.405v-72.06h105.5c.008 0 .012-.003.02 0 8.285 0 15-6.718 15-15 0-4.378-1.875-8.32-4.864-11.058l-29.11-29.109 29.56-29.563A14.999 14.999 0 00376.5 0H256c-8.285 0-15 6.715-15 15v167.395c-8.043 3.125-15.352 8.742-21.098 16.406L3 488a15 15 0 0012 24h482a15 15 0 0012-24zM271 30h69.29l-14.563 14.559c-5.856 5.859-5.856 15.355 0 21.214l14.562 14.563H271zm-27.098 186.8c3.508-4.679 7.805-7.253 12.098-7.253 4.297 0 8.594 2.578 12.102 7.254l71.308 95.078-32.008 35.375-40.277-44.512a14.994 14.994 0 00-22.246 0l-40.277 44.512-32.008-35.375zM45 482l109.258-145.676 39.222 43.348a14.992 14.992 0 0022.242 0L256 335.16l40.277 44.512a14.992 14.992 0 0011.121 4.937c4.239 0 8.278-1.793 11.125-4.937l39.223-43.344L467 482zm0 0"/></svg>