<svg xmlns="http://www.w3.org/2000/svg" width="70" height="70"><path d="M0 0h70v70H0z" fill="none"/><path d="M61.25 18.708H52l-5.338-5.833h-17.5v5.833H44.1l5.338 5.833H61.25v35H14.583V33.292H8.75v26.25a5.85 5.85 0 005.833 5.833H61.25a5.85 5.85 0 005.833-5.833v-35a5.85 5.85 0 00-5.833-5.834zM23.333 42.042a14.583 14.583 0 1014.584-14.584 14.589 14.589 0 00-14.584 14.584zm14.583-8.75a8.75 8.75 0 11-8.75 8.75 8.776 8.776 0 018.751-8.75zM14.583 18.708h8.75v-5.833h-8.75v-8.75H8.75v8.75H0v5.833h8.75v8.75h5.833z"/></svg>