<svg xmlns="http://www.w3.org/2000/svg" width="50" height="50"><path d="M0 0h50v50H0z" fill="none"/><path d="M41.167 13.833h-8.334V9.667L28.667 5.5h-8.334l-4.166 4.167v4.167H7.833A4.179 4.179 0 003.667 18v10.417a4.133 4.133 0 002.083 3.6v6.813A4.152 4.152 0 009.917 43h29.166a4.152 4.152 0 004.167-4.167V32a4.194 4.194 0 002.083-3.583V18a4.179 4.179 0 00-4.166-4.167zM20.333 9.667h8.333v4.167h-8.333zM7.833 18h33.334v10.417H30.75v-6.25h-12.5v6.25H7.833zm18.75 12.5h-4.166v-4.167h4.167zm12.5 8.333H9.917v-6.25h8.333v2.083h12.5v-2.083h8.333z"/></svg>