<svg xmlns="http://www.w3.org/2000/svg" width="55" height="55"><defs><clipPath id="a"><path data-name="Rectangle 12" fill="#005165" stroke="#707070" d="M0 0h55v55H0z"/></clipPath></defs><g fill="#005165" data-name="Mask Group 2" clip-path="url(#a)"><path data-name="Path 1" d="M46.836 29.111H33.945v22.666h-3.222V35.556H17.832v16.221H14.61v-9.776H1.719v13h51.562v-3.224h-6.445zM11.387 51.777H4.942v-6.553h6.445zm25.781-19.443h6.445v19.443h-6.445zm-16.113 6.445h6.442v13h-6.442zm0 0"/><path data-name="Path 2" d="M46.841 0h-12.9v6.445H27.5v19.444h25.782V6.445h-6.441zm-9.673 3.223h6.445v3.222h-6.445zm-6.445 19.443v-5.92l9.668 2.762 9.668-2.762v5.92zm19.336-9.272l-9.668 2.762-9.668-2.762V9.668h19.336zm0 0"/></g></svg>